<?xml version="1.0" encoding="utf-8"?>
<!-- Generator: Adobe Illustrator 25.3.1, SVG Export Plug-In . SVG Version: 6.00 Build 0)  -->
<svg version="1.1" id="Layer_1" xmlns="http://www.w3.org/2000/svg" xmlns:xlink="http://www.w3.org/1999/xlink" x="0px" y="0px"
	 viewBox="0 0 380 80" style="enable-background:new 0 0 380 80; fill: #bf0000;" xml:space="preserve"
>
<g id="_y6LatggTvFnGOdeVRgZmr" transform="matrix(0.5109337568283081, 0, 0, 0.5109337568283081, 16.605308532714844, 113.51480865478516)">
	<path id="_pUqe7OrIgDvxh847JwD9S" d="M75.8-161.2l-88.7,79.9l0.8-42.8l88.7-79.9L75.8-161.2z"/>
	<path id="_Hhig3iJtzCp0JrN_OEIEO" d="M132.8-162.9L44.1-83l0.8-42.8l88.7-79.9L132.8-162.9z"/>
	<path id="_lYpT-qp3aL9uGhCn26Qso" d="M191.6-163.8l-88.7,79.9l0.8-42.8l88.7-79.9L191.6-163.8z"/>
</g>
<path id="_J8LirUuE7Ns0Bl50NngMD" d="M141.2,64.2c-3,0-5.8-0.6-8.4-1.7c-2.5-1.1-4.6-2.8-6.3-4.9l0,0l5.8-6.9
	c2.4,3.3,5.2,4.9,8.4,4.9l0,0c4.2,0,6.4-2.5,6.4-7.5l0,0V26.8h-15.8v-8.4h26.2v29.2c0,5.5-1.4,9.7-4.1,12.4
	C150.5,62.8,146.5,64.2,141.2,64.2L141.2,64.2z M191.8,28.9h10v34.6h-9.5v-4.1c-1.3,1.5-2.9,2.6-4.8,3.4s-3.8,1.2-6,1.2l0,0
	c-4.5,0-8.1-1.3-10.8-3.9c-2.7-2.6-4-6.5-4-11.6l0,0V28.9h10v18.1c0,5.6,2.3,8.4,7,8.4l0,0c2.4,0,4.3-0.8,5.8-2.3
	c1.5-1.6,2.2-3.9,2.2-7l0,0V28.9z M236.3,15.8h10v47.7h-9.6v-4c-2.5,3-6.1,4.5-10.8,4.5l0,0c-3.3,0-6.2-0.7-8.8-2.2
	c-2.6-1.5-4.7-3.5-6.2-6.2c-1.5-2.7-2.2-5.8-2.2-9.4l0,0c0-3.6,0.7-6.7,2.2-9.4c1.5-2.7,3.6-4.8,6.2-6.2c2.6-1.5,5.6-2.2,8.8-2.2
	l0,0c4.4,0,7.9,1.4,10.3,4.2l0,0V15.8z M227.7,55.7c2.5,0,4.6-0.9,6.3-2.6c1.7-1.7,2.5-4.1,2.5-7l0,0c0-2.9-0.8-5.2-2.5-7
	c-1.7-1.7-3.8-2.6-6.3-2.6l0,0c-2.6,0-4.7,0.9-6.4,2.6c-1.7,1.7-2.5,4.1-2.5,7l0,0c0,2.9,0.8,5.2,2.5,7
	C223,54.9,225.1,55.7,227.7,55.7L227.7,55.7z M272,64c-3.6,0-6.9-0.8-9.8-2.3c-2.9-1.5-5.2-3.6-6.8-6.3c-1.6-2.7-2.4-5.8-2.4-9.2
	l0,0c0-3.4,0.8-6.5,2.4-9.2c1.6-2.7,3.9-4.8,6.8-6.3c2.9-1.5,6.2-2.3,9.8-2.3l0,0c3.6,0,6.9,0.8,9.8,2.3c2.9,1.5,5.1,3.6,6.7,6.3
	c1.6,2.7,2.4,5.8,2.4,9.2l0,0c0,3.4-0.8,6.5-2.4,9.2c-1.6,2.7-3.9,4.8-6.7,6.3C278.9,63.2,275.7,64,272,64L272,64z M272,55.7
	c2.6,0,4.7-0.9,6.3-2.6c1.6-1.7,2.5-4.1,2.5-7l0,0c0-2.9-0.8-5.2-2.5-7c-1.6-1.7-3.8-2.6-6.3-2.6l0,0c-2.6,0-4.7,0.9-6.4,2.6
	c-1.7,1.7-2.5,4.1-2.5,7l0,0c0,2.9,0.8,5.2,2.5,7C267.3,54.9,269.4,55.7,272,55.7L272,55.7z M323.4,63.5l-10.9-13.6l-4.8,4.8v8.8
	h-10V15.8h10v27l14.7-13.9h12l-14.4,14.7l15.7,19.9H323.4z M353.4,28.4c5.4,0,9.5,1.3,12.3,3.8c2.9,2.5,4.3,6.4,4.3,11.5l0,0v19.7
	h-9.4v-4.3c-1.9,3.2-5.4,4.8-10.5,4.8l0,0c-2.7,0-5-0.4-6.9-1.3c-1.9-0.9-3.4-2.1-4.5-3.7c-1-1.6-1.5-3.4-1.5-5.4l0,0
	c0-3.2,1.2-5.7,3.6-7.6s6.2-2.8,11.2-2.8l0,0h8c0-2.2-0.7-3.9-2-5c-1.3-1.2-3.3-1.8-6-1.8l0,0c-1.8,0-3.7,0.3-5.4,0.9
	c-1.8,0.6-3.3,1.4-4.5,2.3l0,0l-3.6-7c1.9-1.3,4.1-2.4,6.8-3.1C347.9,28.7,350.6,28.4,353.4,28.4L353.4,28.4z M352.6,57.2
	c1.7,0,3.2-0.4,4.6-1.2c1.3-0.8,2.3-2,2.8-3.5l0,0V49h-6.9c-4.1,0-6.2,1.3-6.2,4l0,0c0,1.3,0.5,2.3,1.5,3.1
	C349.4,56.8,350.8,57.2,352.6,57.2L352.6,57.2z"/>
</svg>
